<?xml version="1.0" standalone="no"?>
<!DOCTYPE svg PUBLIC "-//W3C//DTD SVG 20010904//EN"
 "http://www.w3.org/TR/2001/REC-SVG-20010904/DTD/svg10.dtd">
<svg version="1.0" xmlns="http://www.w3.org/2000/svg"
 width="1024.000000pt" height="1024.000000pt" viewBox="0 0 1024.000000 1024.000000"
 preserveAspectRatio="xMidYMid meet">
<metadata>
Created by potrace 1.14, written by Peter Selinger 2001-2017
</metadata>
<g transform="translate(0.000000,1024.000000) scale(0.100000,-0.100000)"
fill="#000000" stroke="none">
<path d="M4659 8946 c-2 -2 -39 -6 -81 -10 -43 -4 -83 -9 -90 -11 -7 -3 -31
-7 -53 -9 -102 -10 -303 -72 -346 -108 -73 -60 -28 -156 150 -321 29 -27 51
-53 49 -59 -2 -6 -24 -12 -48 -13 -44 -2 -132 -13 -174 -21 -12 -2 -43 -8 -71
-14 -27 -5 -61 -12 -75 -14 -45 -9 -211 -56 -228 -65 -9 -5 -21 -10 -27 -10
-46 -5 -301 -110 -364 -150 -13 -8 -31 -16 -39 -17 -8 -2 -18 -6 -21 -11 -3
-4 -26 -19 -51 -32 -25 -13 -71 -41 -103 -63 -32 -21 -62 -38 -67 -38 -5 0
-10 -3 -12 -7 -1 -5 -21 -20 -44 -36 -22 -15 -49 -35 -60 -45 -10 -9 -37 -30
-59 -46 -22 -16 -51 -40 -65 -52 -115 -103 -152 -139 -219 -208 -108 -112
-131 -136 -131 -141 0 -2 -12 -17 -26 -32 -15 -15 -45 -53 -68 -83 -22 -30
-49 -63 -58 -74 -29 -32 -183 -267 -237 -361 -29 -49 -59 -101 -67 -115 -27
-44 -154 -308 -154 -319 0 -6 -4 -11 -10 -11 -5 0 -9 -3 -8 -7 2 -7 -44 -127
-92 -238 -9 -23 -54 -148 -55 -155 -2 -11 -68 -216 -75 -235 -7 -18 -18 -57
-26 -92 -1 -6 -16 -65 -32 -130 -26 -101 -62 -265 -76 -353 -3 -14 -5 -25 -6
-25 -1 0 -3 -11 -4 -25 -2 -14 -6 -45 -10 -70 -14 -90 -15 -94 -30 -215 -27
-204 -47 -610 -32 -634 4 -6 4 -11 -1 -11 -9 0 -9 -161 0 -185 4 -8 3 -15 -1
-15 -8 0 -7 -108 1 -117 4 -3 2 -13 -3 -23 -5 -10 -7 -20 -4 -23 4 -3 8 -68
10 -144 3 -133 12 -318 15 -318 0 0 2 -19 4 -41 4 -63 18 -188 30 -269 3 -16
7 -46 9 -65 3 -19 8 -51 12 -70 3 -19 8 -44 9 -55 6 -38 34 -160 50 -220 9
-33 18 -69 20 -80 5 -25 55 -169 85 -245 28 -72 113 -244 123 -248 4 -2 7 -8
7 -13 0 -11 91 -148 129 -193 61 -74 213 -215 283 -264 69 -47 241 -140 271
-146 7 -2 25 -8 40 -14 15 -7 40 -15 55 -18 15 -4 32 -10 37 -14 6 -4 24 -10
40 -13 26 -5 57 -12 130 -30 39 -10 280 -58 310 -63 17 -2 41 -6 55 -9 14 -3
47 -8 74 -11 27 -3 60 -10 73 -15 14 -5 23 -5 23 1 0 6 9 6 23 1 25 -9 139
-23 204 -25 24 -1 43 -3 43 -6 0 -8 106 -11 485 -13 369 -2 515 4 695 30 25 3
56 7 70 8 55 6 141 18 205 29 11 2 43 7 70 11 28 4 53 9 56 11 4 2 24 6 45 10
22 3 89 17 149 31 61 14 117 26 125 28 8 2 15 4 15 5 0 1 9 3 20 5 11 2 61 15
110 29 50 15 98 29 108 31 18 4 159 51 187 62 8 3 23 8 33 10 10 1 31 10 47
18 16 8 36 15 45 15 8 0 23 4 33 10 14 8 105 47 212 93 14 5 28 10 33 9 4 -1
7 2 7 8 0 6 3 9 8 8 11 -4 72 26 72 34 0 5 7 8 15 8 8 0 34 11 57 23 24 13 79
43 123 67 239 128 562 354 781 545 86 75 314 302 376 375 81 94 90 104 117
140 14 19 28 37 31 40 14 12 100 130 136 185 21 33 41 62 44 65 10 8 105 170
141 240 19 36 37 67 42 68 4 2 7 7 7 12 0 4 17 46 39 92 21 45 48 108 61 138
12 30 28 69 35 85 20 45 97 294 100 325 1 8 4 22 8 30 10 24 49 231 53 280 2
25 6 59 8 75 9 66 15 155 17 243 2 103 -5 100 74 34 51 -42 55 -45 86 -59 22
-9 29 -8 41 6 16 19 70 131 63 131 -3 0 0 12 6 28 6 15 12 36 14 47 2 11 6 31
9 45 26 114 34 166 41 258 3 35 7 68 10 72 3 5 1 11 -5 15 -6 4 -7 11 -4 17
12 20 -4 270 -22 331 -3 10 -7 30 -9 45 -2 15 -12 61 -23 102 -46 174 -96 297
-207 510 -25 47 -116 194 -125 200 -3 3 -15 20 -25 38 -11 17 -23 32 -27 32
-4 0 -8 5 -8 11 0 13 -82 119 -137 176 -13 13 -23 27 -23 31 0 8 -5 14 -238
248 -210 211 -200 189 -122 244 19 13 40 28 45 33 6 4 51 36 101 70 50 34 108
76 129 92 69 54 225 214 225 230 0 8 3 15 8 15 14 0 53 100 66 168 12 66 12
136 1 196 -4 17 -8 40 -10 51 -2 11 -4 20 -5 20 -1 0 -3 7 -5 15 -6 29 -46
122 -71 168 -84 150 -232 298 -350 352 -76 35 -97 42 -174 54 -100 16 -185 12
-281 -14 -24 -7 -51 -14 -59 -15 -74 -16 -267 -123 -358 -200 -148 -125 -372
-339 -372 -356 0 -5 -6 -9 -13 -9 -8 0 -20 -11 -27 -25 -17 -32 -23 -32 -79 8
-72 53 -242 167 -247 167 -3 0 -10 5 -17 10 -14 13 -88 61 -167 109 -30 18
-57 36 -60 40 -3 3 -21 14 -40 25 -118 62 -146 78 -155 87 -5 5 -17 9 -26 9
-9 0 -22 7 -29 15 -6 8 -15 14 -18 13 -4 -1 -28 8 -53 20 -130 60 -336 130
-462 156 -7 2 -23 6 -37 9 -28 7 -62 12 -210 33 -47 7 -495 15 -501 10z"/>
</g>
</svg>
